<svg width="512" height="512" viewBox="0 0 512 512" fill="none" xmlns="http://www.w3.org/2000/svg">
<rect x="112" y="107" width="301" height="301" fill="white"/>
<path d="M256 0C114.837 0 0 114.837 0 256C0 397.163 114.837 512 256 512C397.163 512 512 397.163 512 256C512 114.837 397.163 0 256 0ZM335.083 271.083L228.416 377.749C224.256 381.909 218.795 384 213.333 384C207.872 384 202.41 381.909 198.25 377.749C189.909 369.408 189.909 355.925 198.25 347.584L289.835 256L198.251 164.416C189.91 156.075 189.91 142.592 198.251 134.251C206.592 125.91 220.075 125.91 228.416 134.251L335.083 240.918C343.424 249.259 343.424 262.741 335.083 271.083Z" fill="#FFBB00"/>
</svg>
