<svg width="512" height="512" viewBox="0 0 512 512" fill="none" xmlns="http://www.w3.org/2000/svg">
<rect width="301" height="301" transform="matrix(-1 0 0 1 400 107)" fill="white"/>
<path d="M256 0C397.163 0 512 114.837 512 256C512 397.163 397.163 512 256 512C114.837 512 0 397.163 0 256C0 114.837 114.837 0 256 0ZM176.917 271.083L283.584 377.749C287.744 381.909 293.205 384 298.667 384C304.128 384 309.59 381.909 313.75 377.749C322.091 369.408 322.091 355.925 313.75 347.584L222.165 256L313.749 164.416C322.09 156.075 322.09 142.592 313.749 134.251C305.408 125.91 291.925 125.91 283.584 134.251L176.917 240.918C168.576 249.259 168.576 262.741 176.917 271.083Z" fill="#FFBB00"/>
</svg>
